<?xml version="1.0" standalone="no"?>
<!DOCTYPE svg PUBLIC "-//W3C//DTD SVG 20010904//EN"
 "http://www.w3.org/TR/2001/REC-SVG-20010904/DTD/svg10.dtd">
<svg version="1.0" xmlns="http://www.w3.org/2000/svg"
 width="128.000000pt" height="128.000000pt" viewBox="0 0 128.000000 128.000000"
 preserveAspectRatio="xMidYMid meet">
<metadata>
Created by potrace 1.14, written by Peter Selinger 2001-2017
</metadata>
<g transform="translate(0.000000,128.000000) scale(0.100000,-0.100000)"
fill="#000000" stroke="none">
<path d="M658 1212 c-25 -3 -28 -8 -28 -38 0 -32 -2 -34 -35 -34 -38 0 -36 6
-37 -98 0 -29 1 -55 3 -57 6 -5 31 -8 62 -6 24 1 27 5 27 35 0 33 2 35 38 38
34 3 37 5 36 34 0 30 1 32 42 32 31 1 47 -4 54 -16 11 -16 11 -16 6 1 -3 9 -1
17 3 17 5 0 9 -27 10 -60 0 -35 -4 -60 -10 -60 -6 0 -7 6 -3 13 6 9 4 9 -7 0
-7 -7 -21 -13 -31 -13 -14 0 -18 -8 -18 -35 0 -33 -2 -35 -35 -35 -26 0 -35
-4 -36 -17 -1 -10 -2 -25 -3 -33 -1 -17 -46 -27 -46 -10 0 6 4 9 8 6 5 -3 9 1
9 9 0 8 -4 12 -9 9 -4 -3 -8 4 -8 15 0 23 4 22 -144 22 -43 0 -80 -1 -81 -3
-2 -2 -5 -17 -8 -33 -3 -25 -9 -30 -35 -33 l-32 -3 0 -70 c0 -50 -4 -69 -12
-68 -35 4 -54 -3 -65 -26 -6 -14 -7 -23 -2 -19 5 3 9 -2 9 -11 0 -9 -7 -16
-17 -14 -52 5 -52 5 -55 -103 l-3 -101 -30 -4 c-16 -3 -31 -6 -34 -8 -5 -5 -4
-146 1 -151 2 -2 18 -4 36 -6 29 -2 32 -5 32 -35 0 -34 4 -37 55 -33 37 2 35
0 39 44 3 42 -7 52 -46 47 -24 -2 -28 1 -28 23 0 25 2 26 60 26 l60 0 0 -35
c0 -35 11 -42 58 -36 7 1 12 -2 11 -6 -1 -4 -1 -20 0 -36 l1 -28 153 3 152 3
-3 33 c-1 17 1 31 5 31 5 -1 20 -1 35 0 23 1 27 6 30 33 l3 33 103 3 102 3 0
36 c0 32 2 34 17 22 9 -8 14 -9 10 -3 -4 7 12 11 49 12 30 0 58 2 60 5 3 3 6
19 6 36 1 28 4 31 35 31 37 0 34 -16 34 185 0 47 0 92 0 100 -1 10 -12 15 -36
15 -33 0 -35 2 -35 34 0 32 -2 34 -41 38 -22 2 -42 2 -45 -1 -2 -2 -4 -24 -4
-48 0 -42 1 -43 33 -43 l33 0 0 -60 c0 -57 -8 -76 -19 -47 -4 10 -6 10 -6 0
-2 -22 -21 -14 -21 8 0 12 4 17 11 14 6 -4 5 2 -2 14 -15 23 -32 28 -71 23
-24 -4 -28 -9 -28 -38 0 -30 -3 -34 -25 -34 -22 0 -25 4 -25 35 l0 35 -48 0
c-26 0 -54 6 -61 13 -11 10 -13 10 -7 0 4 -8 1 -13 -8 -13 -13 0 -16 15 -14
94 l1 95 59 0 c49 -1 59 -3 57 -17 -5 -52 -1 -57 49 -57 l47 0 -2 148 c-1 82
-3 151 -6 153 -3 3 -19 6 -37 6 -27 1 -31 4 -27 24 2 12 1 27 -2 33 -6 10
-215 20 -273 13z"/>
<path d="M1144 1002 c-17 -2 -23 -12 -26 -38 -5 -45 0 -51 47 -56 l40 -3 3 46
c3 42 1 47 -20 50 -13 3 -33 3 -44 1z"/>
<path d="M1143 372 c-20 -3 -23 -9 -23 -47 0 -36 3 -43 23 -47 12 -2 32 -2 45
0 19 3 22 9 22 47 0 36 -3 43 -22 47 -13 2 -33 2 -45 0z"/>
<path d="M770 185 c0 -47 6 -52 65 -45 27 3 32 13 27 55 -4 34 -5 35 -48 35
l-44 0 0 -45z"/>
<path d="M914 161 c-2 -2 -4 -24 -4 -48 l0 -43 45 0 45 0 0 44 0 44 -41 4
c-22 2 -42 2 -45 -1z"/>
</g>
</svg>
