<svg id="visual" viewBox="0 0 900 600" width="900" height="600" xmlns="http://www.w3.org/2000/svg" xmlns:xlink="http://www.w3.org/1999/xlink" version="1.1"><rect x="0" y="0" width="900" height="600" fill="#0b0d11"></rect><g transform="translate(865.3804772722451 600.9688523739212)"><path d="M170.4 -263C227.2 -228.6 284.2 -192.2 292.1 -142.8C300 -93.4 258.9 -31.1 234.4 23C209.9 77 202.1 122.6 182.2 173.2C162.3 223.8 130.3 279.3 82.9 302.3C35.6 325.3 -27.1 315.7 -74.3 286.5C-121.4 257.3 -152.9 208.6 -168.8 162C-184.8 115.4 -185.2 71.1 -197.4 24.8C-209.5 -21.4 -233.5 -69.5 -219.7 -100.6C-205.9 -131.7 -154.3 -145.7 -111.4 -186.5C-68.5 -227.2 -34.2 -294.6 11.3 -312.1C56.8 -329.7 113.5 -297.3 170.4 -263" fill="none" stroke="#14171e" stroke-width="6"></path></g></svg>